<?xml version="1.0" encoding="utf-8"?>
<!-- Generator: Adobe Illustrator 21.0.0, SVG Export Plug-In . SVG Version: 6.00 Build 0)  -->
<svg version="1.1" id="Capa_1" xmlns="http://www.w3.org/2000/svg" xmlns:xlink="http://www.w3.org/1999/xlink" x="0px" y="0px"
	 viewBox="0 0 512 315.5" style="enable-background:new 0 0 512 315.5;" xml:space="preserve">
<style type="text/css">
	.st0{fill:#FFFFFF;}
</style>
<path class="st0" d="M0,241.4c0,40.7,33.1,73.9,73.9,73.9c40.7,0,73.9-33.1,73.9-73.9c0-3.2-0.2-6.4-0.6-9.5l19.2-8.2l32.2,32.2
	c1.7,1.7,3.9,2.5,6.1,2.5c1.7,0,3.4-0.5,4.9-1.5l80-53.9c0.3-0.2,0.7-0.5,1-0.7c23.3-21,57.4-25.4,81.8-25.4c3.7,0,7.1,0.1,10.3,0.3
	c-30.2,32.8-72.5,28.8-72.5,28.8l-35.6,26.6h90.3c-0.4,2.9-0.6,5.9-0.6,8.9c0,40.7,33.1,73.9,73.9,73.9c40.7,0,73.9-33.1,73.9-73.9
	c0-12.1-3-23.6-8.1-33.7c7.7,3.6,10.1-3.2,5.3-9.6c0,0-23-41.4-86.8-32.9l19.4-17.8c1.4-1.3,2.4-3,2.7-4.9c0.8-4.9,1.4-9.6,1.8-14.1
	h-15.7c-13.4-22.4,10.3-37.9,10.3-37.9c1.8,2.1,3.3,4.3,4.5,6.6c-4.4-29.6-18.5-50.7-31.8-64.6C392.9,10.8,370,2,369,1.6
	c-1-0.4-2-0.6-3.1-0.6c-2.5,0-5,1.1-6.6,3.1c-2.4,2.8-2.7,6.8-0.9,10c8.9,15.2,13.4,26.4,15.4,34.6l-12.9-2.4
	c-4.5-0.8-8.8,2.2-9.6,6.6c-0.8,4.5,2.2,8.8,6.6,9.6l16.1,2.9c-0.2,0.6-0.5,1.1-0.8,1.6c-3.6,6.4-13,7.1-16.9,7.1
	c-0.6,0-1.2,0-1.5,0C321.3,64.8,297,61,296,60.8c0,0,0,0-0.1,0c-4.4-0.6-8.8-1-13-1c-20.8,0-39.2,7.9-53.1,22.9
	c-5.8,6.2-9.7,12.4-12,16.8c-36.4-4.7-56.1-25.1-56.2-25.3c-1.6-1.8-3.9-2.8-6.4-2.8c0,0-0.1,0-0.1,0l-96.5,0.9c-3.4,0-6.4,2-7.8,5
	l-5.2,11.3c-2,4.3-0.1,9.5,4.2,11.5l9.1,4.3H48.4c-3.8,0-7,3.1-7,7s3.1,7,7,7h4.5l-28.1,33.4c-2.5,2.9-2.1,7.3,0.8,9.8
	c1.3,1.1,2.9,1.6,4.5,1.6c2,0,3.9-0.8,5.3-2.5L71,118.4h7.1l15.5,35.7l60.2,25v12.1l-19.2,8.2c-13.4-19.3-35.6-31.9-60.7-31.9
	C33.1,167.5,0,200.6,0,241.4z M153.9,160.3l-47.1-19.5l-7.4-17l54.4,25.8V160.3z M399,241.4c0-7.9,2.3-15.2,6.3-21.3l15,30.8
	l31.3-15.2l-16.2-33.4c0.9-0.1,1.8-0.1,2.7-0.1c21.6,0,39.1,17.5,39.1,39.1s-17.5,39.1-39.1,39.1C416.5,280.5,399,262.9,399,241.4z
	 M34.8,241.4c0-21.6,17.5-39.1,39.1-39.1c10.7,0,20.4,4.3,27.5,11.3l-32,13.7l13.7,32l29.6-12.7c-2.6,19.1-19,33.9-38.8,33.9
	C52.3,280.5,34.8,262.9,34.8,241.4z"/>
</svg>
