<?xml version="1.0" encoding="utf-8"?>
<!-- Generator: Adobe Illustrator 21.0.0, SVG Export Plug-In . SVG Version: 6.00 Build 0)  -->
<svg version="1.1" id="Capa_1" xmlns="http://www.w3.org/2000/svg" xmlns:xlink="http://www.w3.org/1999/xlink" x="0px" y="0px"
	 viewBox="0 0 512 182.8" style="enable-background:new 0 0 512 182.8;" xml:space="preserve">
<style type="text/css">
	.st0{fill:#FFFFFF;}
</style>
<g>
	<g>
		<path class="st0" d="M384,144.2c0,1.1,0.1,2.2,0.2,3.3c1.7,19.8,18.3,35.3,38.5,35.3c19.7,0,35.9-14.7,38.3-33.8
			c0.2-1.6,0.3-3.2,0.3-4.9c0-21.3-17.3-38.6-38.6-38.6C401.3,105.6,384,122.9,384,144.2z M446.6,140.9h-11.1
			c-0.3-1.2-0.8-2.3-1.4-3.4l7.9-7.9C444.4,132.9,446,136.7,446.6,140.9z M441.9,158.9L434,151c0.6-1,1.1-2.2,1.4-3.4h11.2
			C446,151.8,444.4,155.6,441.9,158.9z M426,157.1c1.2-0.3,2.3-0.8,3.4-1.4l7.9,7.9c-3.2,2.4-7,4.1-11.2,4.6L426,157.1L426,157.1z
			 M426,120.2c4.2,0.6,8,2.2,11.3,4.7l-7.9,7.9c-1.1-0.6-2.2-1.1-3.4-1.4V120.2z M419.3,120.2l0,11.1c-1.2,0.3-2.4,0.8-3.4,1.4
			l-7.9-7.9C411.2,122.5,415.1,120.8,419.3,120.2L419.3,120.2z M408.1,163.6l7.9-7.9c1,0.6,2.2,1.1,3.3,1.4v11.1
			C415.1,167.6,411.3,166,408.1,163.6z M398.7,147.6h11.1c0.3,1.2,0.8,2.3,1.4,3.3l-7.9,7.9C400.8,155.7,399.2,151.8,398.7,147.6z
			 M409.7,140.9h-11.1c0.6-4.2,2.2-8,4.6-11.3l7.9,7.9C410.5,138.6,410.1,139.7,409.7,140.9L409.7,140.9L409.7,140.9z"/>
		<path class="st0" d="M63.2,144.2c0,1.1,0.1,2.2,0.2,3.3c1.7,19.8,18.3,35.3,38.5,35.3c19.7,0,35.9-14.7,38.3-33.8
			c0.2-1.6,0.3-3.2,0.3-4.9c0-21.3-17.3-38.6-38.6-38.6C80.5,105.6,63.2,122.9,63.2,144.2z M125.8,140.9h-11.1
			c-0.3-1.2-0.8-2.3-1.4-3.4l7.9-7.9C123.6,132.9,125.2,136.7,125.8,140.9z M121.1,158.9l-7.9-7.9c0.6-1,1.1-2.2,1.4-3.4h11.2
			C125.2,151.8,123.6,155.6,121.1,158.9z M105.2,157.1c1.2-0.3,2.3-0.8,3.4-1.4l7.9,7.9c-3.2,2.4-7,4.1-11.2,4.6L105.2,157.1
			L105.2,157.1z M105.2,131.4v-11.1c4.2,0.6,8.1,2.2,11.3,4.7l-7.9,7.9C107.5,132.2,106.4,131.7,105.2,131.4L105.2,131.4z
			 M98.5,120.2v11.1c-1.2,0.3-2.4,0.8-3.4,1.4l-7.9-7.9C90.4,122.5,94.3,120.8,98.5,120.2L98.5,120.2z M87.3,163.6l7.9-7.9
			c1,0.6,2.2,1.1,3.3,1.4v11.1C94.3,167.6,90.5,166,87.3,163.6z M77.9,147.6H89c0.3,1.2,0.8,2.3,1.4,3.3l-7.9,7.9
			C80,155.7,78.4,151.8,77.9,147.6z M88.9,140.9H77.8c0.6-4.2,2.2-8,4.6-11.3l7.9,7.9C89.7,138.6,89.3,139.7,88.9,140.9L88.9,140.9
			L88.9,140.9z"/>
		<path class="st0" d="M0,106.9C0,129,15.1,137,15.1,137l39.4,7.4l1,0.1c0-0.1,0-0.2,0-0.3c0-25.6,20.8-46.4,46.4-46.4
			s46.4,20.8,46.4,46.4c0,1.8-0.1,3.7-0.4,5.8c-0.1,0.6-0.2,1.2-0.3,1.8l230.3,4.6c0,0,0.1,0,0.1,0c-0.8-2.7-1.3-5.5-1.5-8.3
			c-0.1-1.3-0.2-2.6-0.2-3.9c0-25.6,20.8-46.4,46.4-46.4s46.4,20.8,46.4,46.4c0,1.8-0.1,3.7-0.4,5.8c-0.1,1-0.3,1.9-0.5,2.9
			c15.8-1.8,29.5-4.5,36.6-8.5c7-11.3,7.9-27.6,7-31s-2.5-9.9-7.5-23.3c-5-13.4-98.9-33-108.3-33.2c-32.2-13.6-87-39.8-99.1-44
			c-71.9-24.9-147-4.5-163.7-0.7c-16.7,3.8-64.7,24.2-77.2,28c-8.7,2.7-28,5.9-38.9,7.6c-4.5,0.7-7.9,4.6-7.9,9.2v28.6
			C9.1,85.6,0,92.1,0,106.9z M226.5,13.2c0,0,68.9,1.1,103.1,32.1c0,0-7.6,2.9-6,15.8l-86-2.6L226.5,13.2z M137,40.3l11.6-18.7
			c0,0,23.1-8.9,63.6-8.4l7.1,43.9L141,54.5L137,40.3z M103.2,41.3c7.8-4.1,20.9-10.5,37.3-17l-21.8,30H96.8
			C95.8,49,98.4,43.8,103.2,41.3z"/>
	</g>
</g>
</svg>
